<svg width="692" height="436" viewBox="0 0 692 436" fill="none" xmlns="http://www.w3.org/2000/svg">
<g clip-path="url(#clip0_3_2)">
<path d="M594.074 352.472H74.7998C71.255 352.468 67.8567 351.057 65.3502 348.548C62.8437 346.039 61.4338 342.637 61.4297 339.089V18.5699C61.4326 15.9704 62.4655 13.4781 64.3018 11.6399C66.138 9.80175 68.6277 8.76773 71.2246 8.76474H597.48C600.122 8.76775 602.654 9.81961 604.522 11.6896C606.39 13.5596 607.441 16.0949 607.444 18.7394V339.089C607.44 342.637 606.03 346.039 603.524 348.548C601.017 351.057 597.619 352.468 594.074 352.472V352.472Z" fill="#F2F2F2"/>
<path d="M575.131 335.952H91.1813C84.0871 335.952 78.3156 330.542 78.3156 323.892V44.7804C78.3156 39.8487 82.5924 35.8363 87.8494 35.8363H578.305C583.649 35.8363 587.997 39.9149 587.997 44.9278V323.892C587.997 330.542 582.225 335.952 575.131 335.952Z" fill="#A5A58D"/>
<path d="M607.258 20.2377H61.2421V13.4239C61.2473 9.8638 62.6629 6.4511 65.1785 3.9345C67.6942 1.41789 71.1043 0.00290858 74.6608 -3.05176e-05H593.839C597.396 0.00289144 600.806 1.41787 603.321 3.93447C605.837 6.45108 607.253 9.8638 607.258 13.4239V20.2377Z" fill="#E28500"/>
<path d="M85.6285 13.6134C87.5454 13.6134 89.0994 12.0579 89.0994 10.1391C89.0994 8.22021 87.5454 6.66467 85.6285 6.66467C83.7116 6.66467 82.1577 8.22021 82.1577 10.1391C82.1577 12.0579 83.7116 13.6134 85.6285 13.6134Z" fill="#A5A58D"/>
<path d="M98.8031 13.6134C100.72 13.6134 102.274 12.0579 102.274 10.1391C102.274 8.22021 100.72 6.66467 98.8031 6.66467C96.8862 6.66467 95.3322 8.22021 95.3322 10.1391C95.3322 12.0579 96.8862 13.6134 98.8031 13.6134Z" fill="#A5A58D"/>
<path d="M111.978 13.6134C113.895 13.6134 115.449 12.0579 115.449 10.1391C115.449 8.22021 113.895 6.66467 111.978 6.66467C110.061 6.66467 108.507 8.22021 108.507 10.1391C108.507 12.0579 110.061 13.6134 111.978 13.6134Z" fill="#A5A58D"/>
<path d="M318.84 299.94H150.428C146.668 299.935 143.064 298.438 140.406 295.777C137.747 293.116 136.252 289.508 136.248 285.745V82.0279C136.251 79.2133 137.369 76.5149 139.357 74.5247C141.345 72.5344 144.041 71.4148 146.853 71.4116H322.246C325.103 71.4149 327.841 72.5523 329.861 74.5743C331.881 76.5964 333.018 79.3379 333.021 82.1974V285.745C333.017 289.508 331.521 293.116 328.863 295.777C326.204 298.438 322.6 299.935 318.84 299.94V299.94ZM146.853 73.0338C144.471 73.0366 142.187 73.985 140.503 75.6712C138.818 77.3573 137.871 79.6434 137.868 82.0279V285.745C137.872 289.078 139.196 292.274 141.551 294.631C143.906 296.988 147.098 298.314 150.428 298.317H318.84C322.17 298.313 325.363 296.988 327.717 294.631C330.072 292.274 331.396 289.078 331.4 285.745V82.1974C331.397 79.7679 330.432 77.4388 328.716 75.7209C327 74.003 324.673 73.0366 322.246 73.0338H146.853Z" fill="#CCCCCC"/>
<path d="M163.393 285.745H305.876C309.314 285.745 312.612 284.378 315.043 281.944C317.474 279.51 318.84 276.209 318.84 272.767V98.7419C318.84 95.2999 317.474 91.9989 315.043 89.5651C312.612 87.1312 309.314 85.7639 305.876 85.7639H163.393C159.954 85.7639 156.657 87.1312 154.225 89.5651C151.794 91.9989 150.428 95.2999 150.428 98.7419V272.767C150.428 276.209 151.794 279.51 154.225 281.944C156.657 284.378 159.954 285.745 163.393 285.745Z" fill="#E6E6E6"/>
<path d="M273.934 121.27H195.334C193.938 121.27 192.598 120.715 191.61 119.726C190.622 118.737 190.067 117.396 190.067 115.998C190.067 114.599 190.622 113.258 191.61 112.27C192.598 111.281 193.938 110.725 195.334 110.725H273.934C275.331 110.725 276.671 111.281 277.658 112.27C278.646 113.258 279.201 114.599 279.201 115.998C279.201 117.396 278.646 118.737 277.658 119.726C276.671 120.715 275.331 121.27 273.934 121.27V121.27Z" fill="#A5A58D"/>
<path d="M273.934 235.639H195.334C193.938 235.639 192.598 235.083 191.61 234.094C190.622 233.106 190.067 231.764 190.067 230.366C190.067 228.968 190.622 227.627 191.61 226.638C192.598 225.649 193.938 225.094 195.334 225.094H273.934C275.331 225.094 276.671 225.649 277.658 226.638C278.646 227.627 279.201 228.968 279.201 230.366C279.201 231.764 278.646 233.106 277.658 234.094C276.671 235.083 275.331 235.639 273.934 235.639V235.639Z" fill="#A5A58D"/>
<path d="M273.934 260.783H195.334C193.938 260.783 192.598 260.228 191.61 259.239C190.622 258.25 190.067 256.909 190.067 255.511C190.067 254.113 190.622 252.772 191.61 251.783C192.598 250.794 193.938 250.239 195.334 250.239H273.934C275.331 250.239 276.671 250.794 277.658 251.783C278.646 252.772 279.201 254.113 279.201 255.511C279.201 256.909 278.646 258.25 277.658 259.239C276.671 260.228 275.331 260.783 273.934 260.783V260.783Z" fill="#A5A58D"/>
<path d="M235.039 198.732C252.493 198.732 266.641 184.569 266.641 167.099C266.641 149.628 252.493 135.465 235.039 135.465C217.586 135.465 203.438 149.628 203.438 167.099C203.438 184.569 217.586 198.732 235.039 198.732Z" fill="#A5A58D"/>
<path d="M438.332 138.111L424.527 141.026C424.405 141.052 424.291 141.105 424.194 141.182C424.096 141.259 424.017 141.357 423.963 141.469C423.91 141.581 423.882 141.704 423.884 141.829C423.885 141.953 423.915 142.076 423.971 142.187L425.258 144.723L362.828 176.444C362.733 176.492 362.649 176.559 362.58 176.64C362.51 176.721 362.458 176.814 362.425 176.916C362.392 177.017 362.379 177.124 362.387 177.23C362.395 177.336 362.424 177.44 362.473 177.535C362.521 177.63 362.587 177.714 362.668 177.783C362.749 177.853 362.842 177.905 362.944 177.938C363.045 177.971 363.151 177.984 363.257 177.976C363.364 177.968 363.467 177.939 363.562 177.891L425.991 146.17L427.278 148.707C427.334 148.818 427.415 148.914 427.514 148.989C427.614 149.063 427.729 149.114 427.851 149.137C427.973 149.16 428.099 149.154 428.219 149.121C428.338 149.087 428.449 149.026 428.541 148.943L439.04 139.509C439.173 139.389 439.263 139.229 439.296 139.054C439.328 138.878 439.302 138.697 439.222 138.538C439.141 138.379 439.01 138.25 438.849 138.173C438.688 138.096 438.506 138.074 438.332 138.111Z" fill="#E6E6E6"/>
<path d="M438.332 216.958L424.527 214.043C424.405 214.018 424.291 213.964 424.194 213.887C424.096 213.81 424.017 213.712 423.963 213.6C423.91 213.488 423.882 213.365 423.884 213.24C423.885 213.116 423.915 212.993 423.971 212.882L425.258 210.346L362.828 178.625C362.733 178.577 362.649 178.51 362.58 178.429C362.51 178.348 362.458 178.255 362.425 178.153C362.392 178.052 362.379 177.945 362.387 177.839C362.395 177.733 362.424 177.63 362.473 177.535C362.521 177.44 362.587 177.355 362.668 177.286C362.749 177.216 362.842 177.164 362.944 177.131C363.045 177.098 363.151 177.085 363.257 177.093C363.364 177.101 363.467 177.13 363.562 177.178L425.991 208.899L427.278 206.362C427.334 206.251 427.415 206.155 427.514 206.08C427.614 206.006 427.729 205.955 427.851 205.932C427.973 205.909 428.099 205.915 428.219 205.948C428.338 205.982 428.449 206.043 428.541 206.126L439.04 215.561C439.173 215.68 439.263 215.84 439.296 216.015C439.328 216.191 439.302 216.372 439.222 216.531C439.141 216.691 439.01 216.819 438.849 216.896C438.688 216.973 438.506 216.995 438.332 216.958V216.958Z" fill="#E6E6E6"/>
<path d="M483.835 156.162C480.309 156.162 476.862 155.116 473.931 153.155C470.999 151.194 468.714 148.407 467.365 145.146C466.016 141.886 465.663 138.298 466.351 134.836C467.038 131.375 468.736 128.195 471.229 125.699C473.722 123.204 476.899 121.504 480.357 120.816C483.815 120.127 487.399 120.48 490.657 121.831C493.914 123.182 496.698 125.469 498.657 128.403C500.616 131.338 501.661 134.788 501.661 138.317C501.656 143.048 499.776 147.584 496.434 150.93C493.092 154.275 488.561 156.157 483.835 156.162V156.162ZM483.835 122.095C480.629 122.095 477.496 123.046 474.831 124.829C472.166 126.611 470.089 129.145 468.862 132.109C467.636 135.074 467.315 138.335 467.94 141.482C468.565 144.629 470.109 147.52 472.375 149.788C474.642 152.057 477.529 153.602 480.673 154.228C483.817 154.854 487.075 154.533 490.037 153.305C492.998 152.077 495.529 149.998 497.31 147.33C499.09 144.662 500.041 141.526 500.041 138.317C500.036 134.016 498.327 129.893 495.289 126.852C492.251 123.811 488.131 122.1 483.835 122.095V122.095Z" fill="#E6E6E6"/>
<path d="M483.835 234.841C480.309 234.841 476.862 233.795 473.931 231.834C470.999 229.873 468.714 227.086 467.365 223.825C466.016 220.565 465.663 216.977 466.351 213.515C467.038 210.054 468.736 206.874 471.229 204.378C473.722 201.883 476.899 200.183 480.357 199.495C483.815 198.806 487.399 199.159 490.657 200.51C493.914 201.861 496.698 204.148 498.657 207.082C500.616 210.017 501.661 213.467 501.661 216.996C501.656 221.728 499.776 226.263 496.434 229.609C493.092 232.954 488.561 234.836 483.835 234.841V234.841ZM483.835 200.774C480.629 200.774 477.496 201.725 474.831 203.508C472.166 205.291 470.089 207.824 468.862 210.788C467.636 213.753 467.315 217.014 467.94 220.161C468.565 223.308 470.109 226.199 472.375 228.467C474.642 230.736 477.529 232.281 480.673 232.907C483.817 233.533 487.075 233.212 490.037 231.984C492.998 230.756 495.529 228.677 497.31 226.009C499.09 223.341 500.041 220.205 500.041 216.996C500.036 212.695 498.327 208.572 495.289 205.531C492.251 202.49 488.131 200.779 483.835 200.774V200.774Z" fill="#E6E6E6"/>
<path d="M482.422 147.111C481.907 147.112 481.405 146.945 480.993 146.635L480.968 146.616L475.587 142.496C475.338 142.305 475.129 142.066 474.972 141.794C474.815 141.522 474.713 141.222 474.671 140.91C474.63 140.599 474.651 140.282 474.732 139.978C474.813 139.675 474.953 139.39 475.144 139.14C475.335 138.891 475.574 138.682 475.846 138.524C476.117 138.367 476.418 138.265 476.729 138.224C477.04 138.183 477.356 138.203 477.66 138.285C477.963 138.366 478.247 138.506 478.497 138.697L481.982 141.372L490.217 130.618C490.408 130.368 490.646 130.159 490.918 130.002C491.19 129.845 491.49 129.743 491.801 129.701C492.112 129.66 492.428 129.681 492.731 129.762C493.035 129.843 493.319 129.983 493.568 130.175L493.569 130.175L493.518 130.246L493.57 130.175C494.073 130.562 494.401 131.132 494.484 131.761C494.567 132.39 494.397 133.026 494.012 133.53L484.326 146.174C484.102 146.466 483.813 146.701 483.484 146.863C483.154 147.025 482.791 147.109 482.424 147.108L482.422 147.111Z" fill="#E6E6E6"/>
<path d="M476.1 224.739C475.987 224.626 475.897 224.492 475.836 224.345C475.775 224.197 475.744 224.039 475.744 223.879C475.744 223.719 475.775 223.561 475.836 223.413C475.897 223.266 475.987 223.132 476.1 223.019L489.851 209.253C490.079 209.026 490.388 208.898 490.71 208.898C491.032 208.898 491.341 209.026 491.569 209.254C491.797 209.482 491.925 209.791 491.925 210.114C491.925 210.437 491.798 210.746 491.57 210.974L477.818 224.739C477.706 224.852 477.572 224.942 477.424 225.003C477.277 225.064 477.119 225.096 476.959 225.096C476.799 225.096 476.641 225.064 476.494 225.003C476.346 224.942 476.212 224.852 476.1 224.739Z" fill="#E6E6E6"/>
<path d="M490.76 224.739C490.872 224.626 490.962 224.492 491.023 224.345C491.084 224.197 491.116 224.039 491.116 223.879C491.116 223.719 491.084 223.561 491.023 223.413C490.962 223.266 490.872 223.132 490.76 223.019L477.008 209.253C476.78 209.026 476.471 208.898 476.149 208.898C475.827 208.898 475.518 209.026 475.29 209.254C475.062 209.482 474.934 209.791 474.934 210.114C474.934 210.437 475.062 210.746 475.289 210.974L489.041 224.739C489.153 224.852 489.287 224.942 489.435 225.003C489.582 225.064 489.74 225.096 489.9 225.096C490.06 225.096 490.218 225.064 490.365 225.003C490.513 224.942 490.647 224.852 490.76 224.739V224.739Z" fill="#E6E6E6"/>
<path d="M514.616 178.187C514.564 178.187 514.511 178.183 514.459 178.175C514.319 178.155 514.184 178.108 514.062 178.035C513.941 177.963 513.835 177.867 513.751 177.753L507.127 168.861C507.099 168.824 507.061 168.794 507.018 168.775C506.975 168.757 506.928 168.75 506.881 168.755C506.835 168.761 506.79 168.779 506.753 168.807C506.715 168.835 506.686 168.872 506.667 168.916L503.271 176.87C503.182 177.077 503.031 177.251 502.839 177.368C502.647 177.485 502.423 177.538 502.199 177.521C501.974 177.504 501.761 177.418 501.589 177.273C501.416 177.129 501.293 176.934 501.237 176.716L494.459 150.456C494.406 150.248 494.415 150.03 494.486 149.828C494.557 149.626 494.687 149.449 494.858 149.321C495.03 149.193 495.236 149.119 495.449 149.109C495.663 149.098 495.875 149.152 496.058 149.262L519.266 163.258C519.458 163.374 519.61 163.548 519.699 163.755C519.788 163.961 519.81 164.191 519.763 164.411C519.715 164.631 519.6 164.83 519.433 164.981C519.266 165.132 519.056 165.228 518.833 165.253L510.251 166.241C510.204 166.247 510.16 166.264 510.122 166.292C510.084 166.32 510.055 166.358 510.036 166.401C510.017 166.444 510.01 166.491 510.016 166.538C510.021 166.585 510.039 166.629 510.067 166.667L516.691 175.558C516.861 175.787 516.934 176.075 516.893 176.358C516.852 176.641 516.7 176.896 516.471 177.067L515.258 177.973C515.073 178.112 514.848 178.187 514.616 178.187V178.187Z" fill="#E28500"/>
<path d="M552.305 197.529H523.134C520.985 197.529 518.924 196.675 517.405 195.154C515.885 193.633 515.031 191.569 515.031 189.418C515.031 187.267 515.885 185.204 517.405 183.683C518.924 182.162 520.985 181.307 523.134 181.307H552.305C554.454 181.307 556.515 182.162 558.035 183.683C559.555 185.204 560.408 187.267 560.408 189.418C560.408 191.569 559.555 193.633 558.035 195.154C556.515 196.675 554.454 197.529 552.305 197.529V197.529Z" fill="#E28500"/>
<path d="M198.786 141.472L197.573 140.567C197.344 140.395 197.193 140.14 197.151 139.857C197.11 139.574 197.183 139.287 197.353 139.057L203.977 130.166C204.005 130.128 204.023 130.084 204.028 130.037C204.034 129.991 204.027 129.943 204.008 129.9C203.989 129.857 203.96 129.82 203.922 129.792C203.884 129.764 203.84 129.746 203.793 129.741L195.211 128.753C194.988 128.727 194.778 128.632 194.611 128.481C194.445 128.33 194.329 128.13 194.282 127.91C194.234 127.69 194.256 127.461 194.345 127.254C194.434 127.047 194.586 126.874 194.778 126.758L217.986 112.762C218.169 112.651 218.381 112.598 218.595 112.608C218.808 112.619 219.014 112.693 219.186 112.821C219.357 112.949 219.487 113.125 219.558 113.327C219.629 113.529 219.638 113.748 219.585 113.955L212.807 140.215C212.751 140.433 212.628 140.628 212.456 140.773C212.283 140.917 212.07 141.004 211.845 141.021C211.621 141.038 211.397 140.984 211.205 140.867C211.013 140.75 210.862 140.576 210.774 140.369L207.377 132.415C207.359 132.372 207.329 132.334 207.291 132.306C207.254 132.278 207.21 132.26 207.163 132.255C207.116 132.249 207.069 132.256 207.026 132.275C206.983 132.293 206.946 132.323 206.917 132.361L200.293 141.252C200.209 141.366 200.103 141.462 199.982 141.534C199.86 141.607 199.725 141.655 199.585 141.675C199.533 141.682 199.48 141.686 199.428 141.686C199.196 141.686 198.971 141.611 198.786 141.472V141.472Z" fill="#3F3D56"/>
<path d="M153.636 152.918C153.638 150.767 154.493 148.705 156.012 147.185C157.531 145.664 159.59 144.809 161.739 144.806H190.91C193.059 144.806 195.12 145.661 196.639 147.182C198.159 148.703 199.013 150.766 199.013 152.918C199.013 155.069 198.159 157.132 196.639 158.653C195.12 160.174 193.059 161.029 190.91 161.029H161.739C159.59 161.026 157.531 160.171 156.012 158.65C154.493 157.13 153.638 155.068 153.636 152.918V152.918Z" fill="#3F3D56"/>
<path d="M586.135 299.951C587.013 299.145 587.704 298.156 588.159 297.054C588.614 295.952 588.822 294.763 588.768 293.572C588.715 292.381 588.401 291.216 587.849 290.159C587.297 289.103 586.52 288.18 585.573 287.456L594.633 259.926L580.11 263.868L573.734 289.407C572.625 291.079 572.167 293.101 572.447 295.089C572.728 297.077 573.727 298.893 575.256 300.192C576.784 301.492 578.736 302.185 580.741 302.141C582.746 302.096 584.665 301.317 586.135 299.951V299.951Z" fill="#A0616A"/>
<path d="M673.244 298.328C672.366 297.522 671.675 296.534 671.22 295.432C670.765 294.33 670.557 293.141 670.611 291.95C670.664 290.759 670.978 289.594 671.53 288.537C672.082 287.48 672.859 286.558 673.806 285.834L664.746 258.304L679.269 262.246L685.645 287.785C686.754 289.457 687.212 291.479 686.932 293.467C686.651 295.455 685.652 297.27 684.123 298.57C682.595 299.87 680.643 300.563 678.638 300.518C676.633 300.474 674.714 299.695 673.244 298.328V298.328Z" fill="#A0616A"/>
<path d="M630.678 160.805C641.67 160.805 650.58 151.885 650.58 140.883C650.58 129.88 641.67 120.961 630.678 120.961C619.687 120.961 610.777 129.88 610.777 140.883C610.777 151.885 619.687 160.805 630.678 160.805Z" fill="#A0616A"/>
<path d="M611.892 426.131H601.958L597.232 387.775H611.894L611.892 426.131Z" fill="#A0616A"/>
<path d="M614.425 435.771L582.394 435.77V435.364C582.394 433.725 582.716 432.102 583.343 430.588C583.969 429.074 584.888 427.698 586.045 426.539C587.203 425.38 588.578 424.461 590.09 423.834C591.603 423.207 593.224 422.884 594.861 422.884H594.862L614.426 422.885L614.425 435.771Z" fill="#2F2E41"/>
<path d="M645.924 426.131H635.991L631.264 387.775H645.927L645.924 426.131Z" fill="#A0616A"/>
<path d="M648.458 435.771L616.426 435.77V435.364C616.426 433.725 616.749 432.102 617.375 430.588C618.002 429.074 618.92 427.698 620.078 426.539C621.236 425.38 622.61 424.461 624.123 423.834C625.636 423.207 627.257 422.884 628.894 422.884H628.895L648.459 422.885L648.458 435.771Z" fill="#2F2E41"/>
<path d="M611.73 414.92L600.061 414.888C599.561 414.952 599.053 414.91 598.57 414.764C598.087 414.619 597.64 414.374 597.258 414.044C596.867 413.711 596.552 413.298 596.331 412.834C596.111 412.37 595.991 411.865 595.979 411.351L597.323 282.077L651.173 281.539L648.049 410.398C648.031 411.352 647.639 412.261 646.957 412.928C646.274 413.595 645.357 413.966 644.404 413.96H632.371C631.427 413.963 630.519 413.598 629.838 412.942C629.158 412.287 628.76 411.392 628.727 410.447L625.815 333.107C625.816 333.055 625.806 333.003 625.786 332.955C625.766 332.906 625.736 332.863 625.699 332.826C625.662 332.789 625.618 332.761 625.569 332.742C625.52 332.723 625.468 332.714 625.416 332.716C625.312 332.713 625.21 332.751 625.134 332.822C625.057 332.893 625.011 332.991 625.006 333.095L614.873 411.574C614.81 412.408 614.464 413.195 613.892 413.804C613.32 414.412 612.557 414.807 611.73 414.92Z" fill="#2F2E41"/>
<path d="M621.776 290.884C613.82 290.884 605.411 289.461 597.822 285.301C597.254 284.991 596.778 284.536 596.442 283.982C596.106 283.429 595.921 282.796 595.908 282.149L594.846 223.149L593.353 210.524C592.457 203.014 593.794 195.407 597.195 188.654C600.596 181.901 605.911 176.301 612.475 172.556L613.165 172.162L615.108 167.622C615.266 167.247 615.534 166.929 615.877 166.71C616.22 166.491 616.621 166.381 617.028 166.395L643.154 167.142C643.569 167.155 643.97 167.295 644.303 167.542C644.636 167.79 644.886 168.134 645.018 168.528L646.231 172.172C652.937 176.025 658.318 181.822 661.665 188.799C665.012 195.775 666.168 203.604 664.981 211.251L654.271 282.199C654.175 282.838 653.912 283.439 653.507 283.942C653.103 284.445 652.573 284.832 651.97 285.063C647.231 286.865 635.145 290.884 621.776 290.884Z" fill="#3F3D56"/>
<path d="M672.832 282.884C672.422 282.883 672.023 282.759 671.685 282.528C671.347 282.296 671.087 281.969 670.939 281.587L657.672 247.216L646.823 193.669C646.413 191.648 646.603 189.552 647.37 187.639C648.137 185.725 649.447 184.079 651.138 182.902V182.902C652.599 181.885 654.293 181.254 656.062 181.068C657.832 180.883 659.62 181.148 661.26 181.84C662.9 182.532 664.338 183.628 665.441 185.026C666.544 186.423 667.276 188.078 667.568 189.835L670.604 208.069L685.661 277.873C685.77 278.392 685.673 278.933 685.39 279.382C685.107 279.83 684.66 280.15 684.144 280.274L673.292 282.83C673.141 282.866 672.987 282.884 672.832 282.884V282.884Z" fill="#3F3D56"/>
<path d="M587.358 282.884C587.202 282.884 587.048 282.866 586.897 282.83L576.045 280.274C575.529 280.15 575.082 279.83 574.799 279.381C574.516 278.933 574.419 278.392 574.528 277.873L589.589 208.05L592.621 189.835C592.914 188.078 593.645 186.423 594.748 185.026C595.851 183.628 597.29 182.532 598.929 181.84C600.569 181.148 602.357 180.883 604.127 181.068C605.897 181.254 607.591 181.885 609.051 182.902V182.902C610.743 184.079 612.052 185.725 612.819 187.639C613.586 189.552 613.776 191.648 613.366 193.669L602.536 247.151L589.251 281.588C589.102 281.969 588.842 282.297 588.504 282.528C588.166 282.759 587.767 282.883 587.358 282.884V282.884Z" fill="#3F3D56"/>
<path d="M646.169 159.888C644.327 160.949 637.043 161.653 636.524 159.589L636.513 159.544C636.152 158.032 636.452 156.453 636.556 154.902C636.659 153.351 636.508 151.646 635.452 150.506C633.485 148.38 629.985 149.507 627.14 148.969C625.473 148.597 624 147.63 622.994 146.248C621.989 144.867 621.521 143.166 621.678 141.464C621.719 141.142 621.782 140.819 621.853 140.496C622.031 139.679 622.018 138.831 621.813 138.02C621.609 137.209 621.22 136.457 620.676 135.821C620.132 135.186 619.448 134.686 618.679 134.36C617.909 134.034 617.075 133.89 616.241 133.941C613.366 134.106 610.262 134.978 607.884 132.846C606.044 131.198 605.595 126.907 606.403 124.572C607.762 120.647 616.462 118.593 620.261 117.463C624.96 116.104 629.901 115.811 634.727 116.603C639.553 117.396 644.142 119.255 648.16 122.046C650.56 123.739 652.801 125.866 653.823 128.621C654.846 131.375 654.353 134.85 652.046 136.669C653.834 138.563 655.093 140.895 655.697 143.43C656.301 145.964 656.228 148.614 655.487 151.112C654.348 154.786 648.912 158.308 646.169 159.888Z" fill="#2F2E41"/>
<path d="M92.0253 270.193C90.8401 270.074 89.6954 269.696 88.6719 269.086C87.6484 268.476 86.771 267.648 86.1014 266.662C85.4318 265.676 84.9865 264.555 84.7966 263.377C84.6067 262.2 84.6771 260.996 85.0026 259.849L61.2815 243.226L75.2717 237.68L95.6528 254.316C97.5415 254.991 99.1173 256.336 100.081 258.097C101.046 259.857 101.331 261.91 100.884 263.867C100.437 265.824 99.2882 267.549 97.6555 268.715C96.0227 269.881 94.0195 270.407 92.0253 270.193Z" fill="#FFB8B8"/>
<path d="M79.1436 257.557L57.6616 245.085C55.5033 243.864 53.6224 242.207 52.1385 240.219C50.6546 238.231 49.6002 235.955 49.0423 233.537C48.5384 231.249 48.5083 228.882 48.9538 226.582C49.3992 224.282 50.3108 222.098 51.6322 220.165L69.4154 193.908C70.6733 192.05 72.586 190.737 74.7702 190.231C76.9545 189.725 79.249 190.065 81.1939 191.181C83.1388 192.297 84.5906 194.108 85.2582 196.25C85.9259 198.392 85.7601 200.708 84.7942 202.733L70.908 231.857L84.9752 244.256C85.4616 244.685 85.825 245.237 86.028 245.853C86.2309 246.47 86.2662 247.129 86.1301 247.764L84.5376 255.167C84.4194 255.731 84.1682 256.259 83.8048 256.706C83.4413 257.153 82.9763 257.507 82.4485 257.737C81.9232 257.973 81.3492 258.08 80.7743 258.049C80.1993 258.017 79.6402 257.849 79.1436 257.557L79.1436 257.557Z" fill="#3F3D56"/>
<path d="M176.48 199.212C176.12 200.348 175.515 201.392 174.708 202.269C173.901 203.146 172.912 203.836 171.81 204.289C170.708 204.742 169.52 204.948 168.33 204.892C167.14 204.835 165.977 204.519 164.923 203.964L143.793 223.783L141.249 208.937L161.704 192.393C162.753 190.682 164.392 189.415 166.311 188.832C168.23 188.25 170.296 188.392 172.118 189.233C173.939 190.073 175.389 191.553 176.193 193.393C176.997 195.232 177.099 197.302 176.48 199.212V199.212Z" fill="#FFB8B8"/>
<path d="M89.9369 173.195C100.928 173.195 109.839 164.276 109.839 153.273C109.839 142.271 100.928 133.351 89.9369 133.351C78.9454 133.351 70.035 142.271 70.035 153.273C70.035 164.276 78.9454 173.195 89.9369 173.195Z" fill="#FFB8B8"/>
<path d="M148.535 425.809L158.057 422.973L151.661 384.86L137.608 389.045L148.535 425.809Z" fill="#FFB8B8"/>
<path d="M145.182 423.42L163.933 417.835L163.934 417.835C165.503 417.367 167.149 417.214 168.778 417.383C170.406 417.553 171.985 418.042 173.425 418.822C174.865 419.602 176.137 420.659 177.169 421.931C178.201 423.204 178.972 424.667 179.439 426.238L179.555 426.627L148.853 435.771L145.182 423.42Z" fill="#2F2E41"/>
<path d="M44.2183 425.32H54.1518L58.8784 386.964H49.0785L44.2183 425.32Z" fill="#FFB8B8"/>
<path d="M41.6841 422.074L61.2479 422.073H61.2487C62.886 422.073 64.5072 422.396 66.0199 423.023C67.5325 423.65 68.907 424.569 70.0647 425.728C71.2225 426.887 72.1408 428.263 72.7674 429.777C73.3939 431.291 73.7164 432.914 73.7164 434.553V434.959L41.6847 434.96L41.6841 422.074Z" fill="#2F2E41"/>
<path d="M141.428 412.08L104.165 304.747C104.087 304.51 103.937 304.305 103.736 304.158C103.535 304.012 103.294 303.932 103.045 303.93C102.796 303.916 102.549 303.983 102.341 304.12C102.132 304.258 101.974 304.459 101.889 304.694L58.9517 412.142C58.6719 412.849 58.1777 413.45 57.5386 413.861C56.8995 414.272 56.1477 414.472 55.3892 414.432L44.1822 413.888C43.6426 413.862 43.1155 413.716 42.639 413.461C42.1626 413.206 41.7488 412.848 41.4275 412.413C41.1062 411.978 40.8855 411.477 40.7812 410.946C40.677 410.416 40.6919 409.869 40.8249 409.344L81.4398 249.112L122.188 245.783L122.454 246.167C122.674 246.486 144.476 278.615 144.463 334.085L158.433 410.222C158.53 410.748 158.509 411.29 158.374 411.807C158.238 412.325 157.991 412.806 157.648 413.218C157.306 413.629 156.878 413.96 156.394 414.187C155.91 414.414 155.382 414.532 154.847 414.532H144.872C144.115 414.531 143.377 414.295 142.76 413.856C142.142 413.417 141.677 412.796 141.428 412.08Z" fill="#2F2E41"/>
<path d="M66.9157 212.768C65.482 208.659 65.1281 204.25 65.8879 199.965C66.6478 195.679 68.4958 191.661 71.2544 188.297C73.9489 184.952 77.4573 182.357 81.4427 180.76C85.4281 179.163 89.7566 178.619 94.0126 179.18C94.3503 179.225 94.6859 179.271 95.0193 179.317C100.437 180.049 105.473 182.515 109.375 186.348C113.277 190.18 115.837 195.172 116.672 200.58L124.282 249.028L80.8978 252.306L80.5864 252.329L66.9157 212.768Z" fill="#3F3D56"/>
<path d="M130.224 232.427C127.85 232.345 125.519 231.77 123.379 230.739C121.238 229.707 119.336 228.241 117.792 226.433L97.27 202.619C95.6779 200.834 94.8449 198.497 94.9485 196.106C95.0125 194.856 95.3418 193.634 95.9146 192.521C96.4874 191.409 97.2904 190.431 98.2702 189.654C99.8875 188.362 101.904 187.674 103.973 187.709C106.042 187.744 108.035 188.499 109.607 189.846L134.082 210.842L149.139 200.357C149.679 199.981 150.311 199.758 150.968 199.712C151.624 199.666 152.281 199.799 152.868 200.097L160.075 203.749C160.59 204.01 161.035 204.39 161.375 204.857C161.715 205.324 161.939 205.865 162.029 206.436C162.119 207.007 162.072 207.591 161.893 208.14C161.714 208.69 161.406 209.188 160.997 209.595L143.079 227.409C141.482 229.008 139.585 230.275 137.498 231.138C135.41 232.001 133.173 232.443 130.915 232.439C130.685 232.439 130.455 232.435 130.224 232.427Z" fill="#3F3D56"/>
<path d="M105.071 148.298C107.549 149.26 110.16 149.835 112.813 150.003C115.481 150.037 118.317 149.111 119.777 147.077C120.337 146.189 120.699 145.189 120.837 144.148C120.976 143.106 120.887 142.047 120.579 141.043C120.026 139.007 119.031 137.119 117.665 135.513C116.299 133.906 114.595 132.621 112.676 131.75C110.66 130.834 108.482 130.326 106.269 130.255C104.055 130.184 101.85 130.55 99.7783 131.334C98.2808 126.778 92.6409 124.298 87.4208 124.158C76.7574 123.871 67.2228 131.149 62.5899 139.901C57.9569 148.653 57.28 158.657 56.9919 168.369C56.9217 170.738 56.8923 173.208 58.0131 175.346C59.6822 178.53 63.4751 180.245 67.0501 181.605C76.4248 185.165 86.0964 187.887 95.9513 189.737C91.2195 186.71 89.7186 180.193 92.7158 175.689C94.1822 173.486 96.59 171.651 96.9796 169.099C97.4468 166.038 94.8384 163.362 93.8734 160.4C93.3858 158.796 93.3638 157.087 93.8098 155.471C94.2559 153.856 95.1517 152.4 96.3928 151.275C97.7436 150.1 99.3588 149.271 101.1 148.857C102.841 148.444 104.656 148.459 106.39 148.902" fill="#2F2E41"/>
<path d="M201.766 436H0.810304C0.595398 436 0.389294 435.914 0.237332 435.762C0.0853705 435.61 0 435.404 0 435.189C0 434.974 0.0853705 434.767 0.237332 434.615C0.389294 434.463 0.595398 434.378 0.810304 434.378H201.766C201.981 434.378 202.187 434.463 202.339 434.615C202.491 434.767 202.576 434.974 202.576 435.189C202.576 435.404 202.491 435.61 202.339 435.762C202.187 435.914 201.981 436 201.766 436Z" fill="#CCCCCC"/>
<path d="M691.19 436H548.576C548.361 436 548.155 435.914 548.003 435.762C547.851 435.61 547.766 435.404 547.766 435.189C547.766 434.974 547.851 434.767 548.003 434.615C548.155 434.463 548.361 434.378 548.576 434.378H691.19C691.405 434.378 691.611 434.463 691.763 434.615C691.915 434.767 692 434.974 692 435.189C692 435.404 691.915 435.61 691.763 435.762C691.611 435.914 691.405 436 691.19 436Z" fill="#CCCCCC"/>
</g>
<defs>
<clipPath id="clip0_3_2">
<rect width="692" height="436" fill="white"/>
</clipPath>
</defs>
</svg>
